HIERARCHY
ROOT Hips
{
  OFFSET 0 0 0
  CHANNELS 6 Xposition Yposition Zposition Zrotation Yrotation Xrotation
  JOINT LeftThigh
  {
    OFFSET 8.409438 0 -5.917753
    CHANNELS 3 Zrotation Yrotation Xrotation
    JOINT LeftLeg
    {
      OFFSET 0 0 -42.358652
      CHANNELS 3 Zrotation Yrotation Xrotation
      JOINT LeftFoot
      {
        OFFSET 0 0 -39.357303
        CHANNELS 3 Zrotation Yrotation Xrotation
      }
    }
  }
  JOINT RightThigh
  {
    OFFSET -8.409438 0 -5.917753
    CHANNELS 3 Zrotation Yrotation Xrotation
    JOINT RightLeg
    {
      OFFSET 0 0 -42.358652
      CHANNELS 3 Zrotation Yrotation Xrotation
      JOINT RightFoot
      {
        OFFSET 0 0 -39.357303
        CHANNELS 3 Zrotation Yrotation Xrotation
      }
    }
  }
  JOINT SpineLow
  {
    OFFSET 0 0 4.719101
    CHANNELS 3 Zrotation Yrotation Xrotation
    JOINT SpineMid
    {
      OFFSET 0 0 12.899191
      CHANNELS 3 Zrotation Yrotation Xrotation
      JOINT Chest
      {
        OFFSET 0 0 12.899191
        CHANNELS 3 Zrotation Yrotation Xrotation
        JOINT LeftShoulder
        {
          OFFSET 7.550562 1.41573 9.438202
          CHANNELS 3 Zrotation Yrotation Xrotation
          JOINT LeftArm
          {
            OFFSET 9.155056 0 4.247191
            CHANNELS 3 Zrotation Yrotation Xrotation
            JOINT LeftForearm
            {
              OFFSET 0 0 25.771955
              CHANNELS 3 Zrotation Yrotation Xrotation
              JOINT LeftHand
              {
                OFFSET 0 0 25.197169
                CHANNELS 3 Zrotation Yrotation Xrotation
              }
            }
          }
        }
        JOINT RightShoulder
        {
          OFFSET -7.550562 1.41573 9.438202
          CHANNELS 3 Zrotation Yrotation Xrotation
          JOINT RightArm
          {
            OFFSET -9.155056 0 4.247191
            CHANNELS 3 Zrotation Yrotation Xrotation
            JOINT RightForearm
            {
              OFFSET 0 0 -25.771955
              CHANNELS 3 Zrotation Yrotation Xrotation
              JOINT RightHand
              {
                OFFSET 0 0 -25.197169
                CHANNELS 3 Zrotation Yrotation Xrotation
              }
            }
          }
        }
        JOINT Neck
        {
          OFFSET 0 0 15.101124
          CHANNELS 3 Zrotation Yrotation Xrotation
          JOINT Head
          {
            OFFSET 0 0 11.325843
            CHANNELS 3 Zrotation Yrotation Xrotation
            End Site
            {
              OFFSET 0 0 14.157303
            }
          }
        }
      }
    }
  }
}
MOTION
Frames: 5
Frame Time: 0.0
0.0  93.25843  0.0  -6.964968  -29.421893  -90.415881  -8.361541  -23.076354  -3.366556  20.928899  0.405  25.199442  13.161661  5.03801  10.715724  -13.893282  -3.936869  -17.115731  -4.143031  14.066437  14.595906  17.202015  2.208965  -0.162701  -1.940514  -2.523525  0.677307  -5.392397  -6.837496  2.059781  -5.392397  -6.837495  2.059781  -20.633965  32.503996  -9.484236  163.525644  70.13829  -166.174264  12.092448  -19.08042  66.652863  77.559596  2.173112  -9.50422  -25.426906  -0.439719  13.763248  54.587184  23.376701  29.214124  -24.192837  -14.296761  -120.368851  79.132513  -2.765022  -35.39785  11.758669  5.203292  3.164279  8.786215  3.965164  2.272197  
0.0  93.25843  0.0  -7.068395  -29.235786  -90.625456  -8.362386  -23.399335  -4.248186  20.349376  0.852006  27.13113  13.288613  5.281005  10.637828  -14.260188  -4.17296  -16.990971  -3.377475  14.48486  15.45327  17.396389  2.603457  -0.370308  -1.985919  -2.55115  0.69406  -5.519835  -6.910003  2.112832  -5.519834  -6.910002  2.112832  -18.898449  33.06634  -8.610306  160.277196  70.040503  -167.84382  11.535916  -18.972907  66.388576  76.262619  6.01726  -10.788873  -25.096455  -0.485077  13.952705  54.328509  24.281756  28.705073  -24.750293  -14.866692  -120.697747  78.946222  -3.363948  -36.090596  12.004267  5.304385  3.319078  8.968206  4.045415  2.384144  
0.0  93.25843  0.0  -7.172955  -28.753362  -90.771891  -8.370253  -23.755317  -5.213805  19.63108  1.331347  28.990095  13.444003  5.507048  10.464611  -14.715426  -4.227971  -17.052362  -2.944941  14.835291  16.512216  17.597789  3.021032  -0.600627  -2.043046  -2.584527  0.699026  -5.678493  -6.998751  2.135452  -5.678493  -6.998751  2.135452  -18.993387  33.014978  -8.356923  160.125047  69.65056  -167.888516  11.014969  -18.937015  66.228267  76.091962  5.476948  -10.942435  -24.794433  -0.604684  14.097828  54.404595  24.905878  28.60516  -24.799102  -14.805694  -120.961516  78.528146  -3.226608  -35.799681  12.003605  5.414494  3.353469  8.966537  4.12871  2.407679  
0.0  93.25843  0.0  -7.441688  -28.474321  -91.034429  -7.953962  -24.244033  -5.828211  18.923833  1.796117  30.724482  13.621611  5.82269  10.301008  -14.457226  -4.262243  -17.053329  -2.983393  15.298369  17.814457  17.938544  3.34375  -0.736256  -2.087886  -2.646817  0.739642  -5.808673  -7.163673  2.257329  -5.808673  -7.163673  2.257329  -18.824025  33.221716  -8.127522  160.026946  69.371414  -167.89487  10.483543  -18.846429  66.191772  75.951205  5.046567  -11.221243  -24.16526  -0.664111  14.223553  54.466252  25.558617  28.53852  -24.873485  -14.773048  -121.258287  77.990326  -3.164571  -35.393888  12.127511  5.568059  3.414693  9.057614  4.245875  2.449321  
0.0  93.25843  0.0  -7.539326  -27.69556  -91.226447  -7.720244  -24.520345  -6.491656  18.055416  2.269993  32.020807  13.637105  6.083851  10.166735  -13.927803  -4.189438  -17.320712  -3.479473  15.92369  19.247736  18.149856  3.483387  -0.872275  -2.152322  -2.689232  0.763393  -5.990041  -7.274942  2.333499  -5.990041  -7.274942  2.333499  -18.838606  33.484428  -8.187748  159.928342  69.130297  -167.895745  9.99005  -18.639801  66.275033  75.874168  4.78513  -11.652828  -23.621295  -0.907629  14.254212  54.544183  26.321186  28.509151  -24.901115  -14.776394  -121.510015  77.423026  -3.123205  -34.897709  12.051309  5.735272  3.315428  9.000042  4.368926  2.372132  
